/* XPM */
static char *noname[] = {
/* width height ncolors chars_per_pixel */
"128 128 4 1",
/* colors */
"  c #000000",
". c #E5E6E5",
"X c #FFFFFF",
"o c None",
/* pixels */
"XXXXXXXXXXXXXXXXXXXXXXXXXXXXXXXXXXXXXXXXXXXXXXXXXXXXXXXXXXXXXXXXXXXXXXXXXXXXXXXXXXXXXXXXXXXXXXXXXXXXXXXXXXXXXXXXXXXXXXXXXXXXXXXX",
"                                                                                                                               X",
" ............................... .............................. ............................... .............................. X",
" ............................... .............................. ............................... .............................. X",
" ............................... .............................. ............................... .............................. X",
" ............................... .............................. ............................... .............................. X",
" ............................... .............................. ............................... .............................. X",
" ............................... .............................. ............................... .............................. X",
" ............................... .............................. ............................... .............................. X",
" ............................... .............................. ............................... .............................. X",
" ............................... .............................. ............................... .............................. X",
" ............................... .............................. ............................... .............................. X",
" ............................... .............................. ............................... .............................. X",
" ............................... .............................. ............................... .............................. X",
" ............................... .............................. ............................... .............................. X",
" ............................... .............................. ............................... .............................. X",
" ............................... .............................. ............................... .............................. X",
" ............................... .............................. ............................... .............................. X",
" ............................... .............................. ............................... .............................. X",
" ............................... .............................. ............................... .............................. X",
" ............................... .............................. ............................... .............................. X",
" ............................... .............................. ............................... .............................. X",
" ............................... .............................. ............................... .............................. X",
" ............................... .............................. ............................... .............................. X",
" ............................... .............................. ............................... .............................. X",
" ............................... .............................. ............................... .............................. X",
" ............................... .............................. ............................... .............................. X",
" ............................... .............................. ............................... .............................. X",
" ............................... .............................. ............................... .............................. X",
" ............................... .............................. ............................... .............................. X",
" ............................... .............................. ............................... .............................. X",
" ............................... .............................. ............................... .............................. X",
"                                                                                                                               X",
" XXXXXXXXXXXXXXXXXXXXXXXXXXXXXXX XXXXXXXXXXXXXXXXXXXXXXXXXXXXXX ............................... XXXXXXXXXXXXXXXXXXXXXXXXXXXXXX X",
" XXXXXXXXXXXXXXXXXXXXXXXXXXXXXXX XXXXXXXXXXXXXXXXXXXXXXXXXXXXXX ............................... XXXXXXXXXXXXXXXXXXXXXXXXXXXXXX X",
" XXXXXXXXXXXXXXXXXXXXXXXXXXXXXXX XXXXXXXXXXXXXXXXXXXXXXXXXXXXXX ............................... XXXXXXXXXXXXXXXXXXXXXXXXXXXXXX X",
" XXXXXXXXXXXXXXXXXXXXXXXXXXXXXXX XXXXXXXXXXXXXXXXXXXXXXXXXXXXXX ............................... XXXXXXXXXXXXXXXXXXXXXXXXXXXXXX X",
" XXXXXXXXXXXXXXXXXXXXXXXXXXXXXXX XXXXXXXXXXXXXXXXXXXXXXXXXXXXXX ............................... XXXXXXXXXXXXXXXXXXXXXXXXXXXXXX X",
" XXXXXXXXXXXXXXXXXXXXXXXX  XXXXX XXXXX XXXXXXXXXXXXXXXXXXXXXXXX ............................... XXXXXXXXXXXXXXX XXXXXXXXXXXXXX X",
" XXXXXXXXXXXXXXXXXXXXXX    XXXXX XXXXX   XXXXXXXXXXXXXXXXXXXXXX ............................... XXXXXXXXXXXXXX  XXXXXXXXXXXXXX X",
" XXXXXXXXXXXXXXXXXXXX      XXXXX XXXXX     XXXXXXXXXXXXXXXXXXXX ............................... XXXXXXXXXXXXXX   XXXXXXXXXXXXX X",
" XXXXXXXXXXXXXXXXXX        XXXXX XXXXX       XXXXXXXXXXXXXXXXXX ............................... XXXXXXXXXXXXX    XXXXXXXXXXXXX X",
" XXXXXXXXXXXXXXXX          XXXXX XXXXX         XXXXXXXXXXXXXXXX ............................... XXXXXXXXXXXXX     XXXXXXXXXXXX X",
" XXXXXXXXXXXXXX            XXXXX XXXXX           XXXXXXXXXXXXXX ............................... XXXXXXXXXXXX      XXXXXXXXXXXX X",
" XXXXXXXXXXXX              XXXXX XXXXX             XXXXXXXXXXXX ............................... XXXXXXXXXXXX       XXXXXXXXXXX X",
" XXXXXXXXXX                XXXXX XXXXX               XXXXXXXXXX ............................... XXXXXXXXXXX        XXXXXXXXXXX X",
" XXXXXXXX                  XXXXX XXXXX                 XXXXXXXX ............................... XXXXXXXXXXX         XXXXXXXXXX X",
" XXXXXX                    XXXXX XXXXX                   XXXXXX ............................... XXXXXXXXXX          XXXXXXXXXX X",
" XXXXXX                    XXXXX XXXXX                    XXXXX ............................... XXXXXXXXXX           XXXXXXXXX X",
" XXXXXXX                   XXXXX XXXXX                   XXXXXX ............................... XXXXXXXXX            XXXXXXXXX X",
" XXXXXXXXX                 XXXXX XXXXX                 XXXXXXXX ............................... XXXXXXXXX             XXXXXXXX X",
" XXXXXXXXXXX               XXXXX XXXXX               XXXXXXXXXX ............................... XXXXXXXX              XXXXXXXX X",
" XXXXXXXXXXXXX             XXXXX XXXXX             XXXXXXXXXXXX ............................... XXXXXXXX               XXXXXXX X",
" XXXXXXXXXXXXXXX           XXXXX XXXXX           XXXXXXXXXXXXXX ............................... XXXXXXX                XXXXXXX X",
" XXXXXXXXXXXXXXXXX         XXXXX XXXXX         XXXXXXXXXXXXXXXX ............................... XXXXXXX                 XXXXXX X",
" XXXXXXXXXXXXXXXXXXX       XXXXX XXXXX       XXXXXXXXXXXXXXXXXX ............................... XXXXXX                  XXXXXX X",
" XXXXXXXXXXXXXXXXXXXXX     XXXXX XXXXX     XXXXXXXXXXXXXXXXXXXX ............................... XXXXXX                   XXXXX X",
" XXXXXXXXXXXXXXXXXXXXXXX   XXXXX XXXXX   XXXXXXXXXXXXXXXXXXXXXX ............................... XXXXX                    XXXXX X",
" XXXXXXXXXXXXXXXXXXXXXXXXXXXXXXX XXXXXXXXXXXXXXXXXXXXXXXXXXXXXX ............................... XXXXXXXXXXXXXXXXXXXXXXXXXXXXXX X",
" XXXXXXXXXXXXXXXXXXXXXXXXXXXXXXX XXXXXXXXXXXXXXXXXXXXXXXXXXXXXX ............................... XXXXXXXXXXXXXXXXXXXXXXXXXXXXXX X",
" XXXXXXXXXXXXXXXXXXXXXXXXXXXXXXX XXXXXXXXXXXXXXXXXXXXXXXXXXXXXX ............................... XXXXXXXXXXXXXXXXXXXXXXXXXXXXXX X",
" XXXXXXXXXXXXXXXXXXXXXXXXXXXXXXX XXXXXXXXXXXXXXXXXXXXXXXXXXXXXX ............................... XXXXXXXXXXXXXXXXXXXXXXXXXXXXXX X",
" XXXXXXXXXXXXXXXXXXXXXXXXXXXXXXX XXXXXXXXXXXXXXXXXXXXXXXXXXXXXX ............................... XXXXXXXXXXXXXXXXXXXXXXXXXXXXXX X",
" XXXXXXXXXXXXXXXXXXXXXXXXXXXXXXX XXXXXXXXXXXXXXXXXXXXXXXXXXXXXX ............................... XXXXXXXXXXXXXXXXXXXXXXXXXXXXXX X",
"                                                                                                                               X",
" ............................... .............................. ............................... XXXXXXXXXXXXXXXXXXXXXXXXXXXXXX X",
" ............................... .............................. ............................... XXXXXXXXXXXXXXXXXXXXXXXXXXXXXX X",
" ............................... .............................. ............................... XXXXXXXXXXXXXXXXXXXXXXXXXXXXXX X",
" ............................... .............................. ............................... XXXXXXXXXXXXXXXXXXXXXXXXXXXXXX X",
" ............................... .............................. ............................... XXXXXXXXXXXXXXXXXXXXXXXXXXXXXX X",
" ............................... .............................. ............................... XXXXX                    XXXXX X",
" ............................... .............................. ............................... XXXXX                    XXXXX X",
" ............................... .............................. ............................... XXXXX                    XXXXX X",
" ............................... .............................. ............................... XXXXX                    XXXXX X",
" ............................... .............................. ............................... XXXXX                    XXXXX X",
" ............................... .............................. ............................... XXXXX                    XXXXX X",
" ............................... .............................. ............................... XXXXX                    XXXXX X",
" ............................... .............................. ............................... XXXXX                    XXXXX X",
" ............................... .............................. ............................... XXXXX                    XXXXX X",
" ............................... .............................. ............................... XXXXX                    XXXXX X",
" ............................... .............................. ............................... XXXXX                    XXXXX X",
" ............................... .............................. ............................... XXXXX                    XXXXX X",
" ............................... .............................. ............................... XXXXX                    XXXXX X",
" ............................... .............................. ............................... XXXXX                    XXXXX X",
" ............................... .............................. ............................... XXXXX                    XXXXX X",
" ............................... .............................. ............................... XXXXX                    XXXXX X",
" ............................... .............................. ............................... XXXXX                    XXXXX X",
" ............................... .............................. ............................... XXXXX                    XXXXX X",
" ............................... .............................. ............................... XXXXX                    XXXXX X",
" ............................... .............................. ............................... XXXXX                    XXXXX X",
" ............................... .............................. ............................... XXXXXXXXXXXXXXXXXXXXXXXXXXXXXX X",
" ............................... .............................. ............................... XXXXXXXXXXXXXXXXXXXXXXXXXXXXXX X",
" ............................... .............................. ............................... XXXXXXXXXXXXXXXXXXXXXXXXXXXXXX X",
" ............................... .............................. ............................... XXXXXXXXXXXXXXXXXXXXXXXXXXXXXX X",
" ............................... .............................. ............................... XXXXXXXXXXXXXXXXXXXXXXXXXXXXXX X",
"                                                                                                                               X",
" ............................... .............................. ............................... XXXXXXXXXXXXXXXXXXXXXXXXXXXXXX X",
" ............................... .............................. ............................... XXXXXXXXXXXXXXXXXXXXXXXXXXXXXX X",
" ............................... .............................. ............................... XXXXXXXXXXXXXXXXXXXXXXXXXXXXXX X",
" ............................... .............................. ............................... XXXXXXXXXXXXXXXXXXXXXXXXXXXXXX X",
" ............................... .............................. ............................... XXXXXXXXXXXXXXXXXXXXXXXXXXXXXX X",
" ............................... .............................. ............................... XXXXX                    XXXXX X",
" ............................... .............................. ............................... XXXXX                    XXXXX X",
" ............................... .............................. ............................... XXXXXX                  XXXXXX X",
" ............................... .............................. ............................... XXXXXX                  XXXXXX X",
" ............................... .............................. ............................... XXXXXXX                XXXXXXX X",
" ............................... .............................. ............................... XXXXXXX                XXXXXXX X",
" ............................... .............................. ............................... XXXXXXXX              XXXXXXXX X",
" ............................... .............................. ............................... XXXXXXXX              XXXXXXXX X",
" ............................... .............................. ............................... XXXXXXXXX            XXXXXXXXX X",
" ............................... .............................. ............................... XXXXXXXXX            XXXXXXXXX X",
" ............................... .............................. ............................... XXXXXXXXXX          XXXXXXXXXX X",
" ............................... .............................. ............................... XXXXXXXXXX          XXXXXXXXXX X",
" ............................... .............................. ............................... XXXXXXXXXXX        XXXXXXXXXXX X",
" ............................... .............................. ............................... XXXXXXXXXXX        XXXXXXXXXXX X",
" ............................... .............................. ............................... XXXXXXXXXXXX      XXXXXXXXXXXX X",
" ............................... .............................. ............................... XXXXXXXXXXXX      XXXXXXXXXXXX X",
" ............................... .............................. ............................... XXXXXXXXXXXXX    XXXXXXXXXXXXX X",
" ............................... .............................. ............................... XXXXXXXXXXXXX    XXXXXXXXXXXXX X",
" ............................... .............................. ............................... XXXXXXXXXXXXXX  XXXXXXXXXXXXXX X",
" ............................... .............................. ............................... XXXXXXXXXXXXXX  XXXXXXXXXXXXXX X",
" ............................... .............................. ............................... XXXXXXXXXXXXXXXXXXXXXXXXXXXXXX X",
" ............................... .............................. ............................... XXXXXXXXXXXXXXXXXXXXXXXXXXXXXX X",
" ............................... .............................. ............................... XXXXXXXXXXXXXXXXXXXXXXXXXXXXXX X",
" ............................... .............................. ............................... XXXXXXXXXXXXXXXXXXXXXXXXXXXXXX X",
" ............................... .............................. ............................... XXXXXXXXXXXXXXXXXXXXXXXXXXXXXX X",
" ............................... .............................. ............................... XXXXXXXXXXXXXXXXXXXXXXXXXXXXXX X",
"                                                                                                                               X"
};
